<svg version="1.0" xmlns="http://www.w3.org/2000/svg"
 width="400.000000pt" height="400.000000pt" viewBox="0 0 400.000000 400.000000"
 preserveAspectRatio="xMidYMid meet">

<g transform="translate(0.000000,400.000000) scale(0.100000,-0.100000)"
fill="gray" stroke="none">
<path d="M3042 2188 c-14 -35 -107 -286 -165 -448 -19 -52 -40 -118 -47 -147
-20 -88 -24 -89 -106 -47 -128 65 -271 56 -364 -23 -22 -19 -40 -39 -40 -44 0
-5 19 -23 42 -39 36 -26 43 -28 51 -15 4 9 26 27 47 40 32 20 53 25 105 25 74
0 110 -14 148 -59 35 -42 50 -94 45 -158 -6 -71 -26 -95 -132 -167 -58 -38
-92 -69 -100 -88 l-13 -29 -49 39 c-119 94 -177 190 -193 318 -6 52 -14 70
-47 109 -21 26 -46 57 -54 68 -26 40 -213 271 -271 337 -31 36 -62 76 -69 89
-22 43 -33 -1 -27 -103 10 -163 55 -310 106 -346 29 -20 26 -31 -6 -20 -16 4
-41 11 -57 15 l-28 6 7 -68 c15 -143 53 -221 163 -332 103 -104 245 -189 389
-231 l42 -13 -29 -27 c-19 -18 -30 -38 -30 -55 0 -25 1 -25 22 -11 37 26 95
21 124 -12 22 -23 25 -34 21 -74 -2 -27 0 -48 4 -48 17 0 79 63 85 87 l7 25
27 -30 c36 -40 75 -59 167 -83 136 -34 289 -20 371 35 95 63 117 139 62 214
-16 23 -41 49 -55 58 -35 23 -32 30 17 38 130 21 243 149 269 307 10 58 7 195
-5 206 -2 2 -35 -5 -74 -16 -38 -12 -72 -21 -77 -21 -4 0 3 16 14 36 27 45 61
183 61 244 -1 57 -15 119 -42 182 l-21 49 -61 -58 c-112 -107 -101 -110 -101
30 0 70 -6 140 -13 165 -13 42 -76 122 -97 122 -6 0 -16 -15 -23 -32z m-172
-1273 c37 -19 50 -43 50 -90 0 -30 -8 -44 -37 -73 l-38 -37 -3 52 c-4 66 -36
97 -94 91 -42 -4 -42 -4 -28 22 24 45 98 62 150 35z"/>
<path d="M2520 1332 c-24 -19 -39 -95 -22 -106 25 -15 83 -9 103 10 26 26 37
93 18 105 -23 15 -75 10 -99 -9z"/>
</g>
</svg>
